<?xml version="1.0" standalone="no"?><svg xmlns="http://www.w3.org/2000/svg" viewBox="0 0 1440 320"><path fill="#71c55d" fill-opacity="0.2" d="M0,32L34.3,58.7C68.6,85,137,139,206,165.3C274.3,192,343,192,411,170.7C480,149,549,107,617,106.7C685.7,107,754,149,823,144C891.4,139,960,85,1029,69.3C1097.1,53,1166,75,1234,74.7C1302.9,75,1371,53,1406,42.7L1440,32L1440,320L1405.7,320C1371.4,320,1303,320,1234,320C1165.7,320,1097,320,1029,320C960,320,891,320,823,320C754.3,320,686,320,617,320C548.6,320,480,320,411,320C342.9,320,274,320,206,320C137.1,320,69,320,34,320L0,320Z"></path></svg>